<?xml version="1.0" encoding="utf-8" ?>
<svg xmlns="http://www.w3.org/2000/svg" xmlns:xlink="http://www.w3.org/1999/xlink" width="128" height="128">
	<path fill="#E2E2E2" transform="scale(0.125 0.125)" d="M0 0L1024 0L1024 1024L0 1024L0 0Z"/>
	<path transform="scale(0.125 0.125)" d="M671.093 552.594C679.709 552.993 688.341 552.93 696.964 552.943L697.001 690.72Q673.582 690.806 650.164 690.481C637.624 697.018 625.522 705.43 613.511 712.906L537.645 760.689Q529.512 765.584 521.602 770.832L521.489 649.342C532.385 641.428 543.755 634.424 555.084 627.165Q579.794 611.172 604.718 595.516C626.929 581.427 648.614 566.204 671.093 552.594Z"/>
	<path transform="scale(0.125 0.125)" d="M327.384 553.076C334.01 553.062 347.711 551.541 353.297 553.68C360.153 556.305 371.533 565.014 378.299 569.254Q422.931 597.665 467.139 626.73C477.478 633.455 493.974 641.962 502.702 649.661C503.643 663.153 503.012 677.066 502.97 690.606L502.779 769.174C496.936 767.046 488.47 760.624 482.746 757.232Q456.028 741.411 429.527 725.229C420.678 719.792 378.496 692.64 371.334 691C364.712 689.484 336.447 690.516 327.451 690.531L327.427 595.966C327.415 581.684 326.952 567.348 327.384 553.076Z"/>
	<path transform="scale(0.125 0.125)" d="M378.085 462.747C389.612 466.925 401.603 470.94 412.534 476.5C430.516 485.645 446.323 499.293 461.448 512.465C467.677 517.89 474.078 523.235 479.892 529.108C512.211 561.751 507.229 596.051 506.915 637.531Q499.638 633.085 492.507 628.41C492.254 594.409 496.46 569.348 472.437 541.346C462.198 530.006 446.49 519.788 431.004 518.2C435.932 524.778 438.029 532.502 437.088 540.67C436.041 549.765 431.686 557.928 424.477 563.619C417.233 569.338 408.39 571.776 399.235 570.67C390.007 569.555 380.734 564.656 375.035 557.247C369.599 550.178 367.236 540.786 368.438 531.963C369.631 523.205 375.103 514.83 382.128 509.581C390.842 503.07 403.591 500.682 413.935 504.504C417.845 505.949 421.621 508.646 425.827 509.11C427.577 509.302 430.117 509.438 431.547 508.296L431.538 507.265C429.691 504.207 426.006 501.867 423.144 499.819C409.363 489.96 393.706 481.918 377.446 477.02C377.503 472.366 377.175 467.313 378.085 462.747Z"/>
	<path fill="#E2E2E2" transform="scale(0.125 0.125)" d="M413.609 522.191C415.057 522.888 416.399 523.659 417.638 524.692Q418.323 525.269 418.949 525.909Q419.575 526.55 420.136 527.248Q420.697 527.946 421.188 528.695Q421.679 529.444 422.095 530.237Q422.511 531.03 422.848 531.86Q423.186 532.69 423.441 533.548Q423.696 534.406 423.868 535.285Q424.039 536.164 424.124 537.056C424.613 542.483 422.618 547.787 419.017 551.824C415.462 555.809 410.365 558.536 404.98 558.753C400.375 558.939 396.92 557.448 393.526 554.458L393.034 552.744C393.568 550.923 394.93 549.801 396.056 548.342C401.42 541.392 390.699 539.668 390.03 533.901C390.401 532.278 391.176 531.011 392.556 530.047C396.974 526.961 401.959 535.075 406.394 535.443C407.69 535.55 408.665 535.351 409.652 534.464C412.682 531.741 413.411 526.056 413.609 522.191Z"/>
	<path transform="scale(0.125 0.125)" d="M647.454 462.012C648.998 464.184 648.289 473.412 648.345 476.454C631.387 482.629 614.763 489.457 600.126 500.241C597.696 502.031 594.423 504.232 592.749 506.769C592.091 507.765 592.042 507.77 592.317 508.975C592.497 509.061 592.67 509.166 592.857 509.234C597.591 510.948 605.152 505.719 609.656 504.215C617.527 501.586 627.988 502.743 635.344 506.434Q636.082 506.805 636.802 507.213Q637.521 507.62 638.218 508.063Q638.916 508.506 639.591 508.984Q640.266 509.461 640.916 509.971Q641.566 510.482 642.19 511.024Q642.814 511.566 643.41 512.139Q644.006 512.711 644.572 513.313Q645.139 513.915 645.675 514.544Q646.211 515.173 646.714 515.829Q647.218 516.484 647.689 517.164Q648.159 517.843 648.595 518.545Q649.031 519.248 649.431 519.971Q649.832 520.694 650.195 521.436Q650.559 522.178 650.885 522.938Q651.211 523.697 651.499 524.472Q651.787 525.247 652.036 526.035C654.868 534.813 654.558 544.025 650.286 552.27C646.101 560.349 639.287 566.846 630.497 569.561Q629.665 569.817 628.821 570.032Q627.977 570.248 627.123 570.421Q626.27 570.594 625.409 570.725Q624.548 570.856 623.681 570.944Q622.815 571.033 621.945 571.078Q621.076 571.124 620.205 571.127Q619.334 571.129 618.464 571.089Q617.594 571.049 616.727 570.966Q615.86 570.883 614.998 570.757Q614.136 570.631 613.282 570.463Q612.427 570.295 611.582 570.086Q610.737 569.876 609.903 569.624Q609.069 569.373 608.249 569.081Q607.428 568.789 606.623 568.457Q605.818 568.125 605.03 567.753Q604.242 567.382 603.474 566.972Q602.744 566.581 602.034 566.155Q601.323 565.728 600.635 565.267Q599.948 564.806 599.283 564.311Q598.619 563.816 597.98 563.288Q597.342 562.761 596.73 562.202Q596.118 561.644 595.535 561.056Q594.952 560.467 594.399 559.851Q593.846 559.234 593.324 558.591Q592.802 557.947 592.313 557.279Q591.824 556.61 591.369 555.918Q590.914 555.226 590.494 554.513Q590.073 553.799 589.689 553.065Q589.305 552.331 588.958 551.579Q588.611 550.827 588.301 550.059Q587.992 549.29 587.721 548.507Q587.45 547.724 587.219 546.929C584.041 536.189 586.19 527.6 591.463 518.024C575.112 520.549 560.278 530.969 549.342 542.903C527.242 568.958 530.966 596.826 530.896 628.519L516.405 638.281C516.3 629.309 516.387 620.326 516.396 611.353C516.411 595.473 516.195 580.617 521.189 565.274C524.44 555.288 529.769 545.258 536.305 537.034C547.359 523.125 589.509 488.573 605.023 480.265Q614.556 475.178 624.598 471.19C632.259 468.222 640.103 465.715 647.454 462.012Z"/>
	<path fill="#E2E2E2" transform="scale(0.125 0.125)" d="M610.895 521.547C611.912 522.298 611.166 529.54 612.902 532.243C613.82 533.673 616.509 535.224 618.186 535.458C621.66 535.945 623.922 532.008 626.52 530.282C627.811 529.425 628.686 529.437 630.146 529.773C631.744 531.078 632.478 532.453 632.741 534.52C633.504 540.511 628.08 539.406 625.852 543.015C624.255 545.602 628.675 550.369 629.045 552.999C629.162 553.833 628.237 554.602 627.737 555.237C626.46 556.367 625.257 557.433 623.613 557.983C618.935 559.546 614.18 558.881 609.878 556.566Q609.4 556.311 608.936 556.031Q608.473 555.752 608.023 555.449Q607.574 555.147 607.141 554.822Q606.708 554.496 606.292 554.149Q605.876 553.803 605.479 553.435Q605.081 553.067 604.702 552.68Q604.324 552.293 603.966 551.886Q603.608 551.48 603.271 551.056Q602.934 550.632 602.619 550.192Q602.304 549.751 602.012 549.295Q601.72 548.839 601.451 548.369Q601.183 547.898 600.939 547.415Q600.695 546.931 600.476 546.436Q600.257 545.941 600.063 545.435Q599.87 544.929 599.702 544.414Q599.535 543.899 599.394 543.376C598.088 538.407 598.737 532.676 601.443 528.268C603.65 524.673 606.852 522.497 610.895 521.547Z"/>
	<path transform="scale(0.125 0.125)" d="M506.266 327.06Q507.393 326.919 508.525 326.834Q509.658 326.748 510.793 326.718Q511.928 326.688 513.063 326.714Q514.198 326.739 515.331 326.82Q516.464 326.902 517.591 327.038Q518.719 327.174 519.838 327.366Q520.957 327.557 522.066 327.803Q523.174 328.049 524.27 328.349Q525.365 328.648 526.444 329.002Q527.524 329.355 528.584 329.76Q529.645 330.165 530.685 330.622Q531.724 331.079 532.74 331.586Q533.756 332.093 534.747 332.649Q535.737 333.206 536.698 333.81Q537.66 334.413 538.591 335.064Q539.522 335.714 540.42 336.409Q541.318 337.104 542.181 337.842Q543.044 338.58 543.87 339.36Q544.695 340.139 545.482 340.958Q546.269 341.777 547.014 342.634Q547.76 343.49 548.463 344.382Q549.166 345.274 549.824 346.199Q550.483 347.124 551.095 348.08Q551.708 349.037 552.273 350.022Q552.838 351.007 553.354 352.018Q553.87 353.03 554.336 354.065Q554.802 355.101 555.216 356.158Q555.631 357.215 555.993 358.291Q556.356 359.368 556.666 360.46Q556.975 361.553 557.231 362.659Q557.486 363.766 557.688 364.883Q557.889 366.001 558.035 367.127Q558.181 368.253 558.272 369.385Q558.363 370.517 558.399 371.652Q558.434 372.787 558.414 373.922Q558.394 375.058 558.319 376.191Q558.243 377.324 558.113 378.452Q557.982 379.58 557.796 380.7Q557.61 381.821 557.37 382.93Q557.129 384.04 556.835 385.137Q556.54 386.234 556.192 387.315Q555.845 388.396 555.444 389.458Q555.044 390.521 554.593 391.563Q554.141 392.605 553.639 393.624Q553.137 394.642 552.585 395.635Q552.034 396.628 551.435 397.592Q550.835 398.557 550.19 399.491Q549.544 400.425 548.853 401.326Q548.163 402.228 547.429 403.094Q546.695 403.961 545.92 404.791Q545.144 405.62 544.329 406.411Q543.514 407.202 542.661 407.952Q541.809 408.701 540.92 409.409Q540.032 410.116 539.11 410.779Q538.188 411.442 537.235 412.059Q536.281 412.676 535.299 413.246Q534.317 413.816 533.308 414.337Q532.299 414.858 531.265 415.329Q530.232 415.8 529.177 416.22Q528.122 416.639 527.047 417.007Q525.973 417.375 524.882 417.69Q523.791 418.005 522.686 418.266Q521.581 418.527 520.464 418.734Q519.347 418.94 518.222 419.092Q517.09 419.245 515.951 419.342Q514.812 419.438 513.67 419.479Q512.529 419.52 511.386 419.504Q510.243 419.489 509.103 419.417Q507.963 419.345 506.827 419.217Q505.692 419.089 504.564 418.906Q503.436 418.722 502.318 418.483Q501.201 418.244 500.097 417.951Q498.992 417.657 497.904 417.31Q496.815 416.962 495.745 416.561Q494.675 416.161 493.626 415.708Q492.577 415.255 491.551 414.751Q490.526 414.247 489.526 413.693Q488.527 413.139 487.556 412.537Q486.585 411.934 485.645 411.285Q484.705 410.635 483.798 409.94Q482.891 409.245 482.019 408.507Q481.147 407.768 480.313 406.987Q479.478 406.206 478.683 405.386Q477.888 404.565 477.135 403.706Q476.381 402.847 475.671 401.952Q474.961 401.057 474.295 400.128Q473.63 399.199 473.011 398.238Q472.392 397.278 471.821 396.288Q471.25 395.298 470.729 394.281Q470.207 393.264 469.737 392.223Q469.266 391.182 468.847 390.119Q468.428 389.056 468.062 387.973Q467.696 386.891 467.383 385.792Q467.071 384.693 466.813 383.579Q466.555 382.466 466.352 381.342Q466.149 380.217 466.002 379.084Q465.855 377.951 465.764 376.812Q465.672 375.673 465.637 374.531Q465.602 373.388 465.623 372.246Q465.644 371.103 465.722 369.963Q465.799 368.823 465.933 367.688Q466.066 366.554 466.255 365.427Q466.444 364.3 466.689 363.183Q466.933 362.067 467.232 360.964Q467.531 359.861 467.884 358.774Q468.237 357.688 468.643 356.62Q469.049 355.551 469.507 354.505Q469.965 353.458 470.474 352.435Q470.983 351.411 471.542 350.415Q472.1 349.418 472.707 348.45Q473.315 347.482 473.969 346.545Q474.623 345.608 475.322 344.704Q476.021 343.801 476.765 342.932Q477.508 342.064 478.292 341.234Q479.077 340.403 479.902 339.612Q480.727 338.821 481.59 338.072Q482.452 337.323 483.351 336.617Q484.249 335.911 485.182 335.25Q486.114 334.589 487.077 333.975Q488.041 333.361 489.034 332.795Q490.026 332.229 491.046 331.712Q492.065 331.196 493.108 330.73Q494.152 330.264 495.217 329.851Q496.282 329.437 497.367 329.076Q498.451 328.715 499.551 328.408Q500.652 328.101 501.767 327.849Q502.881 327.596 504.007 327.399Q505.132 327.202 506.266 327.06Z"/>
	<path fill="#E2E2E2" transform="scale(0.125 0.125)" d="M510.623 357.522C510.952 357.547 511.281 357.564 511.61 357.597C513.826 357.822 516.141 358.66 517.516 360.505C518.572 361.922 518.726 363.527 518.407 365.218C517.779 368.554 515.581 369.933 512.97 371.693C514.825 372.97 516.772 374.182 518.879 374.993C530.956 379.642 532.457 370.387 538.672 368.608C539.957 368.241 540.649 368.315 541.801 369.015C543.336 369.949 544.092 372.303 544.214 373.979C544.733 381.091 541.253 388.843 536.762 394.18C530.358 401.789 522.022 405.445 512.277 406.35C511.428 406.313 510.591 406.269 509.746 406.181C500.94 405.26 492.672 401.146 487.047 394.225C482.807 389.009 479.042 380.143 480.03 373.323C480.317 371.342 481.133 370.217 482.714 369.048C486.902 367.869 492.231 374.801 496.819 375.826C502.193 377.028 507.104 374.506 511.503 371.736C508.704 370.596 506.612 369.698 505.293 366.829C504.581 365.281 504.379 363.659 505.083 362.053C506.199 359.505 508.187 358.57 510.623 357.522Z"/>
	<path transform="scale(0.125 0.125)" d="M404.279 395.159C405.622 394.977 406.969 394.83 408.325 394.822C432.483 394.676 462.916 408.985 479.838 425.914C485.375 431.454 490.017 437.835 494.046 444.536C507.11 466.263 507.601 484.198 507.618 508.68L507.615 543.018C502.496 540.064 497.593 536.565 492.77 533.155C492.122 513.368 494.814 488.814 489.892 470.065C488.267 464.041 485.739 458.101 482.672 452.672C471.786 433.399 452.068 419.278 430.904 413.375C433.033 416.761 434.516 420.669 435.298 424.589Q435.462 425.428 435.585 426.274Q435.709 427.12 435.79 427.971Q435.871 428.822 435.911 429.676Q435.951 430.53 435.948 431.385Q435.946 432.24 435.902 433.094Q435.857 433.947 435.771 434.798Q435.685 435.649 435.557 436.494Q435.43 437.339 435.261 438.177Q435.092 439.015 434.882 439.844Q434.672 440.673 434.422 441.49Q434.172 442.308 433.881 443.112Q433.591 443.916 433.262 444.705Q432.933 445.494 432.566 446.266Q432.198 447.038 431.793 447.791Q431.388 448.544 430.947 449.276Q430.506 450.008 430.029 450.718Q429.561 451.405 429.059 452.067Q428.557 452.729 428.023 453.366Q427.489 454.003 426.924 454.612Q426.359 455.221 425.764 455.801Q425.169 456.381 424.546 456.931Q423.923 457.481 423.273 457.999Q422.624 458.517 421.949 459.002Q421.274 459.488 420.576 459.938Q419.878 460.389 419.159 460.805Q418.439 461.22 417.699 461.599Q416.96 461.978 416.203 462.32Q415.445 462.662 414.672 462.965Q413.898 463.269 413.11 463.533Q412.323 463.798 411.523 464.023Q410.723 464.248 409.913 464.433Q409.102 464.618 408.284 464.762C399.354 466.344 390.032 463.776 382.721 458.516C375.793 453.531 371.27 445.641 369.915 437.259Q369.783 436.392 369.694 435.52Q369.605 434.647 369.559 433.772Q369.513 432.896 369.509 432.019Q369.506 431.142 369.546 430.266Q369.585 429.39 369.668 428.517Q369.75 427.644 369.875 426.776Q370 425.908 370.168 425.048Q370.335 424.187 370.545 423.335Q370.754 422.484 371.005 421.644Q371.256 420.803 371.547 419.976Q371.839 419.149 372.171 418.338Q372.502 417.526 372.873 416.731Q373.245 415.937 373.654 415.161Q374.064 414.386 374.511 413.632Q374.958 412.877 375.441 412.146Q375.924 411.414 376.443 410.707C383.296 401.459 393.139 396.846 404.279 395.159Z"/>
	<path fill="#E2E2E2" transform="scale(0.125 0.125)" d="M409.016 415.639C410.642 415.467 412.259 415.327 413.834 415.877C417.267 417.077 419.771 419.794 421.261 423.043Q421.483 423.522 421.681 424.012Q421.878 424.501 422.05 425.001Q422.222 425.5 422.369 426.007Q422.515 426.515 422.635 427.029Q422.755 427.543 422.848 428.063Q422.942 428.583 423.008 429.106Q423.075 429.63 423.115 430.157Q423.154 430.683 423.167 431.211Q423.179 431.739 423.165 432.267Q423.15 432.795 423.109 433.321Q423.067 433.848 422.998 434.371Q422.93 434.895 422.835 435.414Q422.739 435.934 422.617 436.447Q422.495 436.961 422.347 437.468Q422.199 437.975 422.025 438.473Q421.851 438.972 421.652 439.461Q421.454 439.968 421.23 440.464Q421.006 440.96 420.758 441.444Q420.51 441.928 420.237 442.399Q419.965 442.87 419.669 443.326Q419.373 443.783 419.054 444.224Q418.735 444.665 418.395 445.089Q418.054 445.514 417.693 445.921Q417.331 446.327 416.95 446.715Q416.568 447.103 416.168 447.471Q415.767 447.839 415.349 448.187Q414.93 448.534 414.494 448.86Q414.058 449.186 413.607 449.49Q413.155 449.793 412.689 450.073Q412.223 450.354 411.743 450.61Q411.263 450.867 410.771 451.098Q410.278 451.33 409.775 451.537C404.056 453.862 398.633 453.251 393.119 450.86L392.612 450.166C393.409 449.482 394.263 448.979 395.091 448.35C396.736 447.1 398.699 444.346 398.772 442.203C398.943 437.181 394.222 437.177 391.706 434.096C390.478 432.591 390.406 430.707 390.723 428.883C390.987 427.36 391.526 426.666 392.785 425.83C397.288 425.173 400.512 428.935 404.731 429.69C406.284 429.967 407.884 429.751 409.081 428.632C410.795 427.031 411.301 424.187 411.56 421.969C411.897 419.07 410.763 417.794 409.016 415.639Z"/>
	<path transform="scale(0.125 0.125)" d="M616.761 395.712C622.635 395.839 628.099 396.669 633.506 399.075Q634.312 399.428 635.099 399.82Q635.886 400.211 636.653 400.642Q637.42 401.072 638.165 401.54Q638.909 402.008 639.63 402.513Q640.35 403.017 641.045 403.556Q641.74 404.095 642.407 404.668Q643.074 405.241 643.712 405.847Q644.35 406.452 644.957 407.088Q645.564 407.725 646.139 408.39Q646.714 409.056 647.255 409.749Q647.797 410.442 648.303 411.161Q648.809 411.88 649.279 412.623Q649.749 413.367 650.182 414.132Q650.615 414.898 651.009 415.684Q651.403 416.47 651.758 417.275Q652.112 418.08 652.427 418.901Q652.716 419.678 652.966 420.468Q653.216 421.258 653.427 422.059Q653.638 422.86 653.809 423.671Q653.981 424.482 654.112 425.3Q654.244 426.118 654.335 426.942Q654.426 427.765 654.477 428.592Q654.528 429.419 654.538 430.248Q654.548 431.077 654.517 431.905Q654.487 432.733 654.416 433.558Q654.345 434.384 654.233 435.205Q654.122 436.026 653.97 436.841Q653.818 437.655 653.627 438.462Q653.435 439.268 653.205 440.064Q652.974 440.86 652.705 441.643Q652.435 442.427 652.128 443.196Q651.82 443.966 651.475 444.719Q651.114 445.513 650.714 446.288Q650.314 447.063 649.875 447.816Q649.436 448.57 648.96 449.301Q648.484 450.031 647.972 450.737Q647.459 451.442 646.912 452.121Q646.365 452.8 645.784 453.451Q645.203 454.101 644.59 454.722Q643.977 455.342 643.334 455.931Q642.69 456.519 642.018 457.075Q641.346 457.63 640.647 458.151Q639.947 458.672 639.222 459.157Q638.498 459.642 637.749 460.09Q637.001 460.538 636.231 460.948Q635.461 461.357 634.672 461.728Q633.882 462.098 633.075 462.428Q632.268 462.758 631.445 463.047C622.905 466.125 614.173 465.257 606.062 461.347C598.36 457.635 592.477 451.279 589.738 443.141C586.251 432.782 588.015 423.353 592.831 413.804C588.356 415.068 584.063 416.548 579.829 418.484C557.751 428.579 542.94 444.492 534.454 467.154C530.221 479.921 530.684 492.328 530.649 505.57L530.559 533.146C525.57 536.456 520.757 540.044 515.935 543.593C515.618 532.816 515.818 521.972 515.791 511.188C515.77 502.803 515.434 494.261 516.135 485.903Q516.296 483.946 516.538 481.998Q516.78 480.049 517.102 478.113Q517.425 476.176 517.827 474.254Q518.229 472.333 518.711 470.429Q519.193 468.526 519.753 466.644Q520.313 464.762 520.95 462.905Q521.588 461.048 522.301 459.22Q523.015 457.391 523.804 455.593Q524.593 453.795 525.456 452.031Q526.319 450.268 527.254 448.541Q528.189 446.815 529.195 445.129Q530.201 443.443 531.276 441.799Q532.35 440.156 533.492 438.559Q534.634 436.962 535.841 435.414Q537.048 433.865 538.319 432.368Q539.589 430.871 540.92 429.428C560.486 408.022 588.205 397.112 616.761 395.712Z"/>
	<path fill="#E2E2E2" transform="scale(0.125 0.125)" d="M611.88 413.428L613.526 413.585C614.615 415.162 612.967 421.54 613.56 424.101C613.961 425.833 615.188 427.803 616.834 428.599C620.158 430.206 623.866 427.61 626.994 426.565C628.615 426.023 629.439 426.115 630.961 426.837C631.832 428.021 632.31 429.322 632.276 430.813C632.199 434.209 628.871 436.05 626.585 438.042C624.952 439.465 623.685 440.763 623.642 443.057C623.588 445.977 626.162 448.526 628.05 450.447C627.848 450.621 627.672 450.83 627.445 450.969C624.741 452.625 619.628 452.654 616.653 451.85Q616.095 451.699 615.545 451.522Q614.995 451.344 614.454 451.14Q613.914 450.936 613.384 450.705Q612.854 450.475 612.335 450.219Q611.817 449.963 611.312 449.682Q610.807 449.401 610.316 449.096Q609.825 448.791 609.35 448.462Q608.875 448.133 608.416 447.782Q607.957 447.43 607.516 447.057Q607.075 446.683 606.652 446.289Q606.23 445.894 605.827 445.479Q605.425 445.065 605.043 444.631Q604.661 444.197 604.301 443.745Q603.94 443.293 603.603 442.824Q603.265 442.355 602.95 441.87Q602.636 441.386 602.345 440.886Q602.098 440.461 601.873 440.024Q601.649 439.586 601.447 439.138Q601.246 438.69 601.067 438.232Q600.889 437.774 600.735 437.307Q600.58 436.84 600.45 436.366Q600.32 435.892 600.215 435.412Q600.11 434.932 600.029 434.447Q599.949 433.962 599.894 433.473Q599.839 432.985 599.809 432.494Q599.779 432.004 599.775 431.512Q599.77 431.021 599.791 430.529Q599.812 430.038 599.859 429.549Q599.905 429.06 599.976 428.573Q600.048 428.087 600.145 427.605Q600.241 427.123 600.363 426.647Q600.484 426.17 600.63 425.701C602.456 419.891 606.587 416.084 611.88 413.428Z"/>
	<path transform="scale(0.125 0.125)" d="M608.778 292.912C612.065 293.95 627.598 307.511 631.179 310.34Q604.501 329.645 577.479 348.468L564.378 357.445C563.854 353.172 563.69 349.425 564.582 345.179C567.677 330.436 578.872 315.437 590.23 305.928C596.017 301.084 602.487 297.06 608.778 292.912Z"/>
	<path transform="scale(0.125 0.125)" d="M415.687 293.431C422.713 295.408 439.612 310.691 444.541 316.561C454.796 328.775 461.174 341.225 459.762 357.405C455.498 355.078 451.646 352.084 447.736 349.216L393.754 310.427C401.104 304.874 407.952 298.442 415.687 293.431Z"/>
	<path transform="scale(0.125 0.125)" d="M494.963 258.49Q511.85 258.249 528.737 258.474C525.71 276.099 523.1 293.788 519.931 311.39C519.775 313.88 519.121 316.578 518.716 319.053C514.212 319.047 509.701 318.868 505.198 318.751C503.601 311.984 502.709 304.886 501.53 298.027Q498.09 278.285 494.963 258.49Z"/>
	<path transform="scale(0.125 0.125)" d="M701.741 477.082C702.242 476.995 702.612 477.122 703.102 477.227C704.519 481.536 703.563 503.233 703.54 509.192C701.702 508.991 699.646 508.659 697.81 508.935C687.399 510.504 670.207 522.25 658.916 526.552L658.215 526.271C657.802 525.504 657.433 524.794 657.26 523.932C655.686 516.112 659.498 506.955 663.654 500.531C671.75 488.016 687.668 480.219 701.741 477.082Z"/>
	<path transform="scale(0.125 0.125)" d="M700.826 360.067C702.031 359.968 702.212 359.734 703.265 360.422C704.13 369.607 703.396 379.342 703.31 388.584C701.172 388.726 698.887 388.828 696.838 389.485C690.874 391.396 685.213 394.974 679.734 397.946L658.155 409.531C657.009 410.079 657.116 410.313 655.834 409.907C655.52 409.356 655.426 409.266 655.267 408.554C653.879 402.319 658.255 391.92 661.587 386.669C670.428 372.735 684.935 363.704 700.826 360.067Z"/>
	<path transform="scale(0.125 0.125)" d="M702.856 418.656L703.194 418.929C704.357 423.342 703.497 442.889 703.483 448.801C701.653 448.679 699.691 448.463 697.892 448.896C687.522 451.391 668.864 462.907 657.955 467.936C657.491 467.444 657.174 466.699 657.054 466.039C655.889 459.601 659.461 450.418 662.929 445.035C672.06 430.868 686.617 422.119 702.856 418.656Z"/>
	<path transform="scale(0.125 0.125)" d="M321.42 477.651C334.186 480.214 346.38 485.307 355.193 495.23C363.807 504.931 365.513 514.025 364.842 526.645C360.174 524.296 355.748 521.08 351.149 518.519C341.654 513.233 331.716 509.473 321.321 506.424Q321.159 492.037 321.42 477.651Z"/>
	<path transform="scale(0.125 0.125)" d="M321.229 418.701C333.515 421.431 345.385 426.314 354.274 435.502C363.469 445.007 364.725 454.638 364.6 467.316C350.448 458.819 336.761 452.015 321.245 446.366Q321.038 432.534 321.229 418.701Z"/>
	<path transform="scale(0.125 0.125)" d="M321.136 360.694C333.437 362.788 345.539 367.977 354.167 377.195C362.947 386.574 364.974 396.398 364.637 408.877C350.848 400.126 336.462 393.751 321.146 388.172C320.912 379.023 321.026 369.845 321.136 360.694Z"/>
</svg>
