<?xml version="1.0" encoding="utf-8" ?>
<svg xmlns="http://www.w3.org/2000/svg" xmlns:xlink="http://www.w3.org/1999/xlink" width="128" height="128">
	<path transform="scale(0.125 0.125)" d="M507.711 244.231C560.153 243.825 614.047 256.734 658.902 284.357C718.721 321.196 762.397 377.993 778.715 446.701C786.782 448.591 794.993 450.719 800.748 457.161C810.331 467.889 807.711 485.256 806.942 498.404C805.929 497.054 804.794 495.773 803.674 494.51Q802.725 493.457 801.725 492.452Q800.725 491.447 799.677 490.493Q798.628 489.539 797.534 488.637Q796.44 487.736 795.303 486.89Q794.166 486.043 792.988 485.254Q791.811 484.465 790.596 483.735Q789.381 483.005 788.131 482.335Q786.882 481.666 785.601 481.059Q784.319 480.452 783.01 479.909Q781.701 479.366 780.366 478.888Q779.031 478.411 777.675 477.999Q776.318 477.588 774.943 477.244Q773.568 476.9 772.177 476.624Q770.787 476.349 769.384 476.142Q767.982 475.935 766.571 475.798Q765.16 475.661 763.744 475.593C744.997 474.621 729.972 482.566 716.437 494.756C715.278 484.654 714.354 471.878 718.411 462.35C721.846 454.284 728.313 449.987 736.073 446.723C733.511 439.803 731.349 432.759 728.542 425.925Q726.769 421.614 724.805 417.386Q722.841 413.158 720.69 409.023Q718.538 404.887 716.204 400.852Q713.869 396.817 711.356 392.891Q708.843 388.964 706.157 385.154Q703.471 381.344 700.617 377.658Q697.763 373.973 694.747 370.418Q691.73 366.864 688.558 363.448Q686.921 361.701 685.25 359.987Q683.579 358.272 681.875 356.591Q680.171 354.91 678.434 353.263Q676.697 351.616 674.928 350.003Q673.159 348.39 671.358 346.812Q669.558 345.235 667.727 343.693Q665.896 342.151 664.034 340.645Q662.173 339.14 660.283 337.671Q658.392 336.203 656.473 334.771Q654.554 333.34 652.608 331.947Q650.661 330.554 648.687 329.199Q646.713 327.845 644.713 326.529Q642.713 325.214 640.688 323.938Q638.662 322.662 636.612 321.426Q634.561 320.191 632.487 318.996Q630.413 317.8 628.316 316.646Q626.218 315.492 624.099 314.38Q621.979 313.267 619.838 312.196Q617.697 311.126 615.535 310.097Q613.373 309.069 611.192 308.083Q609.01 307.098 606.81 306.155Q604.609 305.213 602.391 304.314Q600.172 303.415 597.936 302.56Q595.7 301.704 593.448 300.893Q591.195 300.082 588.927 299.316Q586.66 298.549 584.377 297.828Q582.095 297.106 579.798 296.429Q577.502 295.752 575.193 295.121Q572.884 294.49 570.563 293.904Q568.242 293.318 565.909 292.778Q563.577 292.238 561.235 291.744Q558.893 291.25 556.541 290.802C543.031 288.291 529.485 287.219 515.767 286.726Q513.38 286.702 510.992 286.722Q508.605 286.743 506.219 286.809Q503.832 286.875 501.447 286.986Q499.063 287.098 496.68 287.254Q494.298 287.411 491.919 287.612Q489.54 287.814 487.166 288.061Q484.791 288.307 482.422 288.599Q480.052 288.891 477.689 289.227Q475.325 289.564 472.968 289.945Q470.612 290.326 468.263 290.752Q465.913 291.178 463.573 291.648Q461.232 292.119 458.901 292.633Q456.57 293.148 454.249 293.707Q451.928 294.265 449.618 294.868Q447.307 295.471 445.009 296.117Q442.711 296.763 440.425 297.453Q438.14 298.143 435.868 298.876Q433.596 299.609 431.338 300.385Q429.08 301.161 426.838 301.98Q424.595 302.798 422.368 303.659Q420.142 304.52 417.932 305.423Q415.722 306.326 413.529 307.271Q411.337 308.216 409.162 309.202Q406.988 310.188 404.833 311.216Q402.678 312.243 400.543 313.311Q398.408 314.379 396.293 315.487Q394.178 316.595 392.085 317.743Q389.992 318.891 387.921 320.079Q385.85 321.266 383.802 322.493Q381.754 323.72 379.729 324.985Q377.704 326.25 375.704 327.553Q373.704 328.857 371.729 330.198Q368.479 332.379 365.315 334.683Q362.151 336.988 359.078 339.413Q356.006 341.838 353.03 344.38Q350.053 346.922 347.177 349.577Q344.301 352.233 341.53 354.997Q338.759 357.761 336.097 360.63Q333.434 363.5 330.885 366.47Q328.335 369.44 325.903 372.506Q323.47 375.573 321.157 378.731Q318.845 381.889 316.656 385.134Q314.467 388.379 312.406 391.706Q310.344 395.033 308.412 398.438Q306.481 401.842 304.682 405.319Q302.884 408.795 301.221 412.338Q299.558 415.882 298.033 419.487Q296.508 423.092 295.124 426.753C292.61 433.552 290.056 440.459 288.701 447.597C293.642 449.847 298.315 452.091 301.985 456.249C310.93 466.384 308.79 483.413 308.168 495.95Q306.977 494.711 305.743 493.514C294.219 482.26 278.757 475.195 262.492 475.516C243.025 475.899 229.057 485.738 216.01 499.194C215.919 487.136 213.834 470.963 220.542 460.276C225.732 452.007 234.479 449.457 243.399 447.453C254.965 401.58 275.244 362.467 307.847 327.985C359.436 273.425 433.609 246.274 507.711 244.231Z"/>
	<path transform="scale(0.125 0.125)" d="M332.533 567.2Q338.492 566.614 344.461 567.089C389.655 570.625 446.658 616.699 474.987 649.964C497.307 676.173 510.216 697.199 507.318 732.797C495.465 729.481 484.132 721.483 473.191 715.871Q431.046 694.761 389.67 672.182C400.133 687.228 413.685 700.197 425.359 714.34Q449.895 744.438 475.081 773.995C467.983 777.77 460.312 779.735 452.335 780.537C411.187 784.677 364.935 758.368 334.051 733.194C305.536 709.951 274.256 675.418 270.539 637.53Q270.377 635.953 270.294 634.37Q270.212 632.788 270.209 631.203Q270.207 629.618 270.284 628.035Q270.361 626.452 270.517 624.874Q270.674 623.297 270.91 621.73Q271.146 620.162 271.46 618.609Q271.774 617.056 272.167 615.52Q272.559 613.984 273.028 612.47Q273.497 610.956 274.042 609.468Q274.586 607.979 275.205 606.52Q275.824 605.061 276.516 603.635Q277.207 602.209 277.969 600.819Q278.732 599.43 279.563 598.08Q280.395 596.731 281.293 595.425Q282.191 594.119 283.154 592.86Q284.117 591.601 285.142 590.392C297.096 576.076 314.212 568.769 332.533 567.2Z"/>
	<path transform="scale(0.125 0.125)" d="M684.77 566.697C692.209 565.535 701.422 567.164 708.514 569.434Q710.018 569.912 711.496 570.464Q712.975 571.016 714.424 571.641Q715.873 572.265 717.29 572.96Q718.707 573.655 720.088 574.419Q721.469 575.182 722.811 576.013Q724.152 576.844 725.451 577.74Q726.75 578.637 728.003 579.596Q729.257 580.555 730.461 581.574Q731.666 582.594 732.818 583.672Q733.971 584.75 735.069 585.883Q736.167 587.016 737.208 588.202Q738.249 589.388 739.231 590.624Q740.212 591.86 741.131 593.143Q742.05 594.426 742.905 595.752Q743.76 597.079 744.549 598.446Q745.337 599.813 746.057 601.217C754.616 618.117 754.522 637.617 748.638 655.334C733.691 700.341 685.187 742.372 643.769 763.207C610.957 779.713 580.994 785.442 545.379 773.623C549.663 768.159 554.783 763.094 559.441 757.929C571.528 744.528 584.017 731.249 595.456 717.303C608.583 701.809 621.947 686.583 634.921 670.959C613.712 682.051 592.245 692.63 571.164 703.973C552.463 714.037 534.137 724.928 515.021 734.191C514.451 703.944 524.579 679.171 543.634 656.038C570.007 624.022 617.348 585.816 656.834 572.29C665.992 569.153 675.179 567.618 684.77 566.697Z"/>
	<path transform="scale(0.125 0.125)" d="M260.593 486.707C260.768 486.682 260.943 486.65 261.119 486.633C272.377 485.573 285.352 490.426 293.993 497.458C307.35 508.328 313.652 525.121 318.579 541.083C320.272 546.566 322.177 552.418 322.742 558.136Q320.751 558.355 318.777 558.692C300.599 561.911 283.632 573.97 273.137 588.954C261.555 605.49 257.641 624.918 261.174 644.731C268.68 686.812 306.916 728.362 341.153 752.042L346.466 755.852C339.908 754.299 333.256 753.216 326.748 751.442C307.703 746.25 290.353 736.694 275.005 724.402C235.286 692.59 213.523 644.735 208.125 594.783C204.97 565.583 205.297 529.136 224.716 505.241C234.108 493.686 245.991 488.264 260.593 486.707Z"/>
	<path transform="scale(0.125 0.125)" d="M756.464 486.701C766.065 484.915 779.051 489.475 786.9 494.839C803.216 505.99 811.571 525.45 814.984 544.312C823.589 591.88 808.68 649.863 781.035 689.299C756.114 724.849 722.474 748.293 679.259 755.951C686.109 749.689 694.021 744.312 701.064 738.183C727.332 715.32 752.829 686.426 761.474 651.835C766.576 631.42 764.325 609.352 753.295 591.182C741.714 572.104 723.976 561.837 702.68 556.735C706.257 539.484 709.685 521.25 720.744 506.967C729.86 495.192 741.753 488.512 756.464 486.701Z"/>
	<path transform="scale(0.125 0.125)" d="M353.508 369.726C360.009 368.979 368.605 369.527 375.312 369.551C410.612 369.675 449.604 377.345 479.419 396.87C491.376 404.7 501.754 414.336 511.781 424.454C518.287 417.87 524.399 411.148 531.694 405.383C567.747 376.892 612.802 369.097 657.608 369.766C667.367 369.912 677.245 369.953 686.946 371.086Q678.541 380.993 669.732 390.543C680.445 405.414 689.632 422.141 695.657 439.466C708.434 476.207 707.124 520.033 690.125 555.203C681.564 555.166 673.03 556.688 664.674 558.395C673.521 544.531 679.553 527.32 681.873 511.122C687.965 468.6 674.802 430.947 649.615 397.255C650.005 394.861 650.644 392.507 651.218 390.151C651.342 389.555 651.252 389.219 651.14 388.629C648.022 387.44 643.511 388.136 640.169 388.288C621.525 389.14 603.041 391.87 585.287 397.754C553.316 408.352 527.566 428.487 512.374 458.783C506.274 448.014 499.831 438.032 491.057 429.208C459.522 397.494 413.192 387.658 369.893 387.529C370.605 391.298 371.858 395.046 372.906 398.739C359.454 413.795 349.358 433.982 344.241 453.529Q343.814 455.171 343.427 456.823Q343.041 458.475 342.696 460.137Q342.351 461.798 342.047 463.467Q341.743 465.137 341.481 466.813Q341.219 468.489 340.998 470.172Q340.778 471.854 340.599 473.541Q340.42 475.229 340.284 476.92Q340.147 478.611 340.053 480.305Q339.958 481.999 339.906 483.695Q339.853 485.391 339.843 487.088Q339.833 488.785 339.865 490.481Q339.897 492.178 339.971 493.873Q340.045 495.568 340.161 497.261Q340.277 498.954 340.436 500.643Q340.594 502.332 340.794 504.017Q340.994 505.702 341.236 507.381Q341.478 509.061 341.762 510.734Q342.045 512.407 342.37 514.072Q342.696 515.737 343.062 517.394Q343.428 519.051 343.836 520.698Q344.243 522.345 344.692 523.981Q345.14 525.618 345.629 527.243Q346.118 528.867 346.647 530.48Q347.176 532.092 347.745 533.69Q348.314 535.289 348.922 536.873Q349.531 538.457 350.178 540.025Q350.826 541.593 351.513 543.145Q352.199 544.697 352.924 546.231Q353.649 547.765 354.411 549.28Q355.174 550.796 355.974 552.292Q356.774 553.789 357.611 555.264Q358.448 556.74 359.322 558.195C351.308 556.878 343.111 556.584 335.009 556.255C333.065 550.726 330.516 545.388 328.573 539.837Q326.615 534.19 325.093 528.409Q323.571 522.629 322.495 516.75Q321.42 510.87 320.796 504.925Q320.172 498.981 320.004 493.006Q319.914 490.13 319.926 487.252Q319.939 484.374 320.053 481.499Q320.167 478.624 320.383 475.754Q320.599 472.885 320.917 470.024Q321.235 467.164 321.654 464.317Q322.073 461.47 322.593 458.64Q323.113 455.81 323.732 453Q324.352 450.189 325.071 447.403Q325.79 444.617 326.608 441.857Q327.425 439.098 328.34 436.37Q329.255 433.642 330.266 430.947Q331.277 428.253 332.383 425.596Q333.489 422.94 334.688 420.324Q335.888 417.708 337.179 415.137Q338.471 412.565 339.853 410.041Q341.234 407.517 342.705 405.043C345.797 399.906 349.238 394.273 353.334 389.887C346.753 383.809 340.783 376.783 334.86 370.065Q344.187 370.085 353.508 369.726Z"/>
	<path transform="scale(0.125 0.125)" d="M411.441 420.705C420.579 419.633 431.277 421.391 439.816 424.68C437.501 424.366 435.088 423.956 432.753 424.202C425.655 424.95 418.431 428.749 414.122 434.479C409.446 440.696 407.204 449.354 408.586 456.985Q408.707 457.635 408.86 458.278Q409.014 458.922 409.199 459.557Q409.384 460.191 409.601 460.816Q409.818 461.441 410.067 462.054Q410.315 462.667 410.593 463.267Q410.872 463.867 411.18 464.452Q411.488 465.037 411.825 465.606Q412.163 466.175 412.528 466.726Q412.893 467.277 413.286 467.81Q413.678 468.342 414.097 468.854Q414.516 469.366 414.959 469.856Q415.403 470.346 415.871 470.814Q416.339 471.281 416.83 471.724Q417.32 472.168 417.833 472.586Q418.345 473.004 418.878 473.396Q419.41 473.788 419.962 474.153Q420.59 474.574 421.239 474.963Q421.887 475.352 422.554 475.709Q423.221 476.065 423.905 476.388Q424.589 476.71 425.288 476.999Q425.987 477.287 426.699 477.54Q427.412 477.793 428.136 478.01Q428.861 478.227 429.595 478.408Q430.329 478.589 431.072 478.733Q431.814 478.877 432.563 478.984Q433.311 479.091 434.064 479.161Q434.817 479.23 435.573 479.262Q436.328 479.294 437.084 479.288Q437.841 479.282 438.596 479.239Q439.35 479.195 440.102 479.114Q440.854 479.033 441.601 478.915Q442.348 478.796 443.088 478.641C450.666 477.067 457.562 472.847 461.699 466.197C466.621 458.285 466.472 449.781 464.434 441.024C474.582 449.062 482.59 470.533 485.359 482.849C483.487 484.861 481.432 486.689 479.413 488.552Q477.371 490.231 475.217 491.763Q473.062 493.295 470.806 494.672Q468.549 496.049 466.202 497.265Q463.854 498.48 461.427 499.528Q459.001 500.576 456.506 501.452Q454.012 502.327 451.462 503.025Q448.913 503.724 446.32 504.242Q443.728 504.76 441.106 505.095C417.743 508.3 392.609 502.512 373.755 488.182C364.95 481.491 353.825 470.737 352.527 459.111C351.854 453.085 354.023 447.605 357.751 442.947C369.741 427.967 393.393 422.644 411.441 420.705Z"/>
	<path transform="scale(0.125 0.125)" d="M603.016 420.219C616.486 419.269 632.722 422.736 644.672 428.887C654.02 433.698 665.888 441.546 669.017 452.246C670.643 457.803 669.087 463.661 666.39 468.614C657.423 485.087 637.815 496.884 620.287 502.007C597.226 508.747 573.005 505.63 552.092 494.037C547.559 491.171 543.437 487.858 539.26 484.512C541.751 467.831 549.216 453.229 560.196 440.545C557.883 448.298 557.539 455.67 561.297 463.123C564.93 470.327 571.59 475.484 579.231 477.864Q579.907 478.073 580.592 478.247Q581.277 478.422 581.97 478.561Q582.663 478.7 583.363 478.804Q584.062 478.908 584.766 478.976Q585.469 479.044 586.176 479.076Q586.882 479.108 587.589 479.105Q588.296 479.101 589.002 479.061Q589.708 479.021 590.411 478.946Q591.114 478.87 591.812 478.759Q592.51 478.648 593.202 478.501Q593.894 478.354 594.577 478.173Q595.26 477.991 595.933 477.775Q596.606 477.559 597.268 477.309Q597.929 477.059 598.577 476.775Q599.224 476.492 599.857 476.176Q600.49 475.86 601.105 475.512Q601.71 475.18 602.297 474.817Q602.884 474.454 603.451 474.061Q604.019 473.668 604.565 473.246Q605.111 472.825 605.635 472.375Q606.159 471.926 606.659 471.45Q607.159 470.974 607.634 470.473Q608.108 469.972 608.557 469.448Q609.005 468.923 609.425 468.375Q609.846 467.828 610.237 467.26Q610.629 466.691 610.99 466.104Q611.352 465.516 611.683 464.91Q612.014 464.305 612.313 463.683Q612.612 463.061 612.879 462.424Q613.145 461.788 613.379 461.138Q613.612 460.489 613.811 459.828Q614.011 459.167 614.176 458.497C615.881 451.538 614.856 443.327 611.01 437.248C605.235 428.12 596.09 424.857 586.073 422.631C591.729 421.64 597.267 420.526 603.016 420.219Z"/>
	<path transform="scale(0.125 0.125)" d="M511.719 482.415C513.816 483.011 515.498 483.618 517.21 485C524.681 491.033 527.721 501.052 528.648 510.281C530.432 528.036 523.384 542.779 512.524 556.202C508.388 554.06 504.661 547.717 502.526 543.723C495.425 530.437 493.43 514.498 497.877 500.001C500.298 492.11 504.279 486.336 511.719 482.415Z"/>
</svg>
