<?xml version="1.0" encoding="utf-8" ?>
<svg xmlns="http://www.w3.org/2000/svg" xmlns:xlink="http://www.w3.org/1999/xlink" width="128" height="128">
	<path transform="scale(0.125 0.125)" d="M718.844 354.552C721.932 351.936 724.698 349.034 727.504 346.126C732.63 358.354 736.731 371.315 738.707 384.44Q738.972 386.17 739.194 387.905Q739.416 389.641 739.596 391.382Q739.775 393.123 739.911 394.867Q740.048 396.612 740.141 398.359Q740.234 400.107 740.284 401.856Q740.334 403.605 740.341 405.355Q740.347 407.105 740.311 408.854Q740.274 410.604 740.195 412.352Q740.115 414.1 739.992 415.845Q739.87 417.591 739.704 419.333Q739.538 421.075 739.329 422.812Q739.12 424.55 738.869 426.282Q738.617 428.013 738.323 429.738Q738.028 431.463 737.691 433.18Q737.355 434.898 736.975 436.606Q736.596 438.314 736.175 440.013Q735.754 441.711 735.291 443.399Q734.828 445.086 734.323 446.762Q733.819 448.437 733.273 450.1Q732.727 451.763 732.141 453.411Q731.554 455.06 730.927 456.694Q730.3 458.327 729.632 459.945Q728.965 461.563 728.258 463.163Q727.551 464.764 726.804 466.347Q726.058 467.929 725.273 469.493Q724.487 471.057 723.664 472.601Q722.84 474.145 721.979 475.668Q721.117 477.191 720.218 478.693Q719.32 480.194 718.384 481.673Q717.448 483.152 716.476 484.607Q715.505 486.062 714.497 487.493Q713.49 488.924 712.447 490.329C692.16 517.528 663.077 536.641 629.249 541.442C592.104 546.714 558.591 534.763 529.123 512.652C524.748 525.715 518.344 537.873 511.726 549.907C504.69 538.203 499.274 525.897 494.932 512.972C481.761 521.356 470.533 529.558 455.487 534.885C425.611 545.465 389.836 545.842 361.034 531.961Q359.539 531.24 358.062 530.482Q356.586 529.724 355.128 528.93Q353.671 528.135 352.234 527.305Q350.796 526.475 349.38 525.609Q347.964 524.744 346.569 523.843Q345.175 522.943 343.803 522.008Q342.432 521.073 341.084 520.105Q339.736 519.136 338.412 518.135Q337.089 517.133 335.79 516.099Q334.492 515.065 333.22 513.999Q331.947 512.933 330.702 511.836Q329.456 510.738 328.239 509.611Q327.021 508.483 325.831 507.325Q324.642 506.168 323.481 504.981Q322.321 503.794 321.19 502.579Q320.059 501.364 318.959 500.121Q317.859 498.878 316.79 497.609Q315.721 496.339 314.683 495.043Q313.646 493.747 312.641 492.426Q311.636 491.105 310.665 489.759Q309.693 488.414 308.755 487.045Q307.817 485.675 306.913 484.283Q306.009 482.891 305.14 481.477Q304.271 480.063 303.437 478.627Q302.604 477.192 301.806 475.737Q301.008 474.281 300.246 472.806Q299.485 471.331 298.76 469.838Q298.035 468.345 297.348 466.834Q296.66 465.323 296.01 463.796Q295.361 462.269 294.749 460.726Q294.137 459.183 293.564 457.625Q292.99 456.067 292.456 454.496C280.647 420.443 281.662 379.088 297.517 346.372C309.55 362.17 326.951 370.191 344.789 377.598C338.469 388.948 333.882 400.453 332.262 413.426C328.998 439.56 337.405 464.749 353.594 485.222C369.189 504.943 393.552 517.272 418.342 519.943C444.67 522.78 471.486 516.219 492.261 499.532C490.465 489.407 486.881 462.843 492.454 454.498C493.206 453.372 493.751 453 495.035 452.653C496.103 452.764 496.861 452.911 497.785 453.49C506.45 458.921 509.614 476.088 512.028 485.389C514.366 476.714 516.197 467.215 520.843 459.424C522.555 456.554 524.68 453.485 528.069 452.607C529.421 452.87 530.06 452.998 530.934 454.124C537.825 463.004 533.053 489.292 532.26 500.157Q535.461 502.675 538.865 504.912Q542.268 507.149 545.849 509.089Q549.431 511.028 553.164 512.657Q556.897 514.285 560.755 515.59C585.908 524.164 614.495 521.432 638.174 509.787C660.391 498.861 678.628 479.08 686.584 455.479C695.168 430.016 691.71 402.254 679.954 378.438C694.928 372.664 706.834 365.184 718.844 354.552Z"/>
	<path transform="scale(0.125 0.125)" d="M361.967 248.535L362.035 248.601C362.427 249.891 352.877 265.184 351.713 267.562C350.195 270.661 348.889 273.904 348.158 277.284C346.747 283.811 347.941 290.244 351.063 296.071C361.723 315.969 382.966 316.915 401.445 325.074C416.579 331.756 431.235 340.085 443.642 351.117C463.857 369.091 478.014 392.216 492.934 414.48C499.132 423.729 505.84 432.656 511.873 442.005C541.021 401.085 562.36 355.696 608.988 331.227C615.938 327.58 623.434 324.344 630.846 321.776C639.802 318.673 648.808 316.422 657.151 311.771C666.206 306.723 673.613 299.437 676.341 289.165C680.115 274.952 668.552 259.419 661.761 247.796C669.354 252.464 677.491 256.182 685.165 260.705C699.879 269.376 712.946 278.833 717.42 296.064C719.318 306.577 718.68 316.731 714.245 326.55C693.956 371.469 634.631 379.178 593.508 394.892C565.978 405.412 536.815 423.618 520.083 448.288C516.826 453.089 514.432 458.231 512.073 463.506C508.409 456.787 505.465 450.29 500.801 444.118C480.358 417.066 449.142 400.972 417.861 389.864C405.627 385.52 392.98 382.596 380.671 378.515C355.352 370.122 325.48 355.289 312.083 331.266C305.716 319.849 303.578 306.156 307.307 293.519C314.678 268.539 341.166 259.683 361.967 248.535Z"/>
	<path transform="scale(0.125 0.125)" d="M502.284 303.212C534.945 300.801 582.225 310.221 613.368 319.527C577.136 335.435 542.664 356.827 516.866 387.25C515.001 389.386 513.3 391.732 511.549 393.966C505.325 387.041 499.635 379.795 493.003 373.216C469.402 349.803 440.721 333.981 411.362 318.98C419.862 317.24 428.196 314.786 436.665 312.892C458.484 308.013 479.951 304.377 502.284 303.212Z"/>
	<path transform="scale(0.125 0.125)" d="M413.315 610.977C415.119 611.254 416.471 612.812 417.842 613.998C455.862 646.894 483.467 692.74 492.111 742.436C493.434 750.04 493.955 757.687 494.516 765.375C488.845 753.391 480.718 743.158 472.373 732.964C438.054 692.529 405.91 677.506 360.307 652.588Q360.686 651.783 361.08 650.986C371.171 630.603 392.545 618.035 413.315 610.977Z"/>
	<path transform="scale(0.125 0.125)" d="M607.601 610.962C630.032 615.06 650.811 634.129 664.114 651.621C652.739 657.819 640.812 663.05 629.393 669.2C600.246 684.897 573.605 705.291 553.019 731.314C544.45 743.191 536.236 754.963 530.187 768.371C531.542 716.114 555.435 665.864 590.167 627.512C595.514 621.608 601.855 616.487 607.601 610.962Z"/>
	<path transform="scale(0.125 0.125)" d="M353.064 659.939C353.153 659.95 353.249 659.938 353.333 659.971C353.621 660.087 353.971 660.143 354.169 660.382C355.149 661.566 356.815 669.883 357.542 672.013C358.674 675.335 360.269 678.616 361.731 681.813C381.094 724.16 420.04 762.161 463.672 778.457C449.423 778.913 434.366 775.844 420.604 772.311C379.415 762.197 332.257 736.416 304.462 704.137C313.909 685.191 333.889 668.523 353.064 659.939Z"/>
	<path transform="scale(0.125 0.125)" d="M669.805 659.678C687.843 668.164 708.99 687.352 721.141 703.038C687.647 737.029 649.756 760.087 603.75 772.896C588.304 776.691 572.575 778.688 556.75 780.047Q571.106 773.825 584.688 766.057C626.698 741.617 657.124 707.432 669.805 659.678Z"/>
	<path transform="scale(0.125 0.125)" d="M313.623 592.15L313.931 592.159C315.347 593.351 316.362 600.306 317.098 602.565C318.837 607.9 320.997 613.291 323.499 618.313C327.586 626.516 332.966 634.112 338.897 641.084C342.219 644.989 345.842 648.672 348.895 652.796L349.294 653.341C330.078 654.765 310.18 664.474 299.074 680.596C297.24 683.258 295.077 689.568 292.274 691.015L290.858 689.676C273.322 666.851 258.689 641.186 252.245 612.9C271.322 601.696 292.093 596.224 313.623 592.15Z"/>
	<path transform="scale(0.125 0.125)" d="M744.633 488.763C749.223 490.562 753.521 497.177 756.344 501.103C772.48 523.55 775.351 548.948 774.297 575.815C773.983 583.799 773.62 591.938 772.33 599.831C764.291 593.475 755.741 588.403 746.121 584.853C734.517 581.048 723.18 581.456 711.457 584.55C714.418 565.765 711.812 551.867 705.566 534.237C709.355 530.577 713.435 527.216 717.217 523.53C727.98 513.038 736.799 501.585 744.633 488.763Z"/>
	<path transform="scale(0.125 0.125)" d="M709.785 594.239C722.13 596.037 734.835 599.161 746.697 603.014C755.136 605.754 763.423 609.059 771.997 611.354C763.012 640.308 751.125 666.853 731.883 690.537C730.9 691.793 729.71 692.967 728.633 694.15C724.176 684.688 721.028 675.537 713.487 667.863C702.296 656.475 687.789 653.322 672.407 653.236Q674.406 651.959 676.262 650.483C693.035 637.088 707.343 615.944 709.785 594.239Z"/>
	<path transform="scale(0.125 0.125)" d="M278.795 491.379C282.647 495.29 285.659 500.764 289.082 505.112Q292.367 509.294 295.914 513.257Q299.461 517.22 303.255 520.947Q307.049 524.673 311.075 528.149Q315.1 531.625 319.34 534.835C309.052 553.138 309.434 561.976 311.674 582.57C299.365 580.805 287.768 581.748 275.881 585.375C265.972 589.003 258.496 593.556 250.666 600.631C249.701 592.491 248.987 584.428 248.833 576.224C248.369 551.378 250.617 526.661 265.81 506.015C269.691 500.741 274.267 496.089 278.795 491.379Z"/>
	<path transform="scale(0.125 0.125)" d="M688.294 545.161C688.591 545.306 688.912 545.409 689.184 545.596C693.741 548.725 698.448 562.754 699.658 568.084C704.579 589.762 696.561 611.42 683.828 628.898C679.653 634.631 674.218 639.751 670.536 645.8C670.44 645.958 670.348 646.12 670.254 646.28C668.445 637.117 667.176 628.992 662.606 620.677C661.704 619.318 660.799 617.956 659.825 616.647C650.78 604.482 637.734 598.675 623.095 596.563C642.692 586.032 669.593 577.442 682.1 558.348C684.813 554.205 686.534 549.759 688.294 545.161Z"/>
	<path transform="scale(0.125 0.125)" d="M336.149 543.836C337.517 548.339 338.892 552.642 341.314 556.712C353.682 577.502 381.809 585.521 402.01 596.51C386.302 599.159 373.504 604.492 363.564 617.305C357.948 625.199 356.167 634.285 354.277 643.574C351.04 639.285 346.949 635.431 343.518 631.258C333.142 618.642 325.84 603.583 324.121 587.24C322.472 571.565 326.169 556.269 336.149 543.836Z"/>
	<path transform="scale(0.125 0.125)" d="M598.497 405.192C607.114 403.857 617.06 406.689 624.143 411.633C631.715 416.917 636.384 425.341 637.952 434.349Q638.11 435.256 638.222 436.169Q638.334 437.082 638.401 438Q638.468 438.918 638.488 439.838Q638.509 440.758 638.484 441.678Q638.459 442.597 638.388 443.515Q638.317 444.432 638.2 445.345Q638.083 446.258 637.921 447.164Q637.759 448.07 637.552 448.966Q637.345 449.863 637.094 450.748Q636.842 451.633 636.547 452.505Q636.252 453.376 635.913 454.232Q635.575 455.088 635.194 455.925Q634.813 456.763 634.391 457.581Q633.969 458.399 633.507 459.194Q633.045 459.99 632.544 460.762Q632.042 461.533 631.503 462.279Q630.979 463.007 630.419 463.708Q629.859 464.41 629.265 465.082Q628.67 465.753 628.042 466.394Q627.415 467.036 626.755 467.644Q626.096 468.253 625.407 468.827Q624.718 469.402 624.001 469.941Q623.283 470.48 622.54 470.982Q621.796 471.484 621.028 471.948Q620.26 472.412 619.47 472.836Q618.679 473.261 617.869 473.645Q617.058 474.029 616.229 474.372Q615.399 474.714 614.554 475.015Q613.708 475.315 612.849 475.573Q611.989 475.83 611.118 476.044Q610.247 476.257 609.366 476.427Q608.484 476.596 607.596 476.721C597.56 478.226 588.086 475.274 580.039 469.322C578.507 467.91 576.987 466.489 575.639 464.896C568.58 456.549 565.943 447.499 566.858 436.678Q567.48 438.284 568.204 439.846C570.896 445.508 575.689 450.471 581.744 452.419C587.338 454.218 593.223 453.584 598.423 450.902Q598.95 450.635 599.463 450.341Q599.976 450.047 600.473 449.727Q600.97 449.408 601.45 449.063Q601.93 448.718 602.392 448.349Q602.853 447.98 603.296 447.587Q603.738 447.195 604.159 446.78Q604.58 446.366 604.98 445.93Q605.38 445.495 605.756 445.039Q606.133 444.584 606.486 444.11Q606.839 443.635 607.167 443.144Q607.495 442.652 607.797 442.144Q608.099 441.636 608.375 441.114Q608.651 440.591 608.9 440.055Q609.148 439.518 609.369 438.97Q609.59 438.422 609.782 437.863Q609.975 437.304 610.138 436.736C611.835 430.711 611.175 423.979 607.951 418.576C603.848 411.701 597.769 408.631 590.326 406.665C593.048 405.957 595.714 405.554 598.497 405.192Z"/>
	<path transform="scale(0.125 0.125)" d="M418.825 405.186C423.79 404.487 429.128 405.354 434.089 405.873Q432.187 406.2 430.307 406.634C424.236 408.088 418.3 412.534 415.169 417.88C411.958 423.361 410.938 430.32 412.592 436.467C414.28 442.739 418.383 447.798 424.066 450.904C429.581 453.917 436.377 454.742 442.407 452.892C449.86 450.605 454.302 445.171 457.905 438.632C457.944 448.948 455.989 455.468 449.872 463.84C443.825 470.165 437.293 474.399 428.52 475.748C418.863 477.234 409.137 475.036 401.262 469.193Q400.531 468.654 399.828 468.079Q399.126 467.504 398.453 466.895Q397.779 466.286 397.138 465.644Q396.496 465.001 395.887 464.328Q395.278 463.654 394.704 462.951Q394.13 462.248 393.591 461.517Q393.053 460.786 392.552 460.028Q392.051 459.271 391.588 458.49Q391.125 457.709 390.703 456.905Q390.28 456.102 389.898 455.278Q389.515 454.454 389.175 453.613Q388.835 452.771 388.537 451.913Q388.239 451.056 387.985 450.184Q387.73 449.312 387.52 448.429Q387.309 447.546 387.143 446.653Q386.977 445.761 386.856 444.861Q386.732 443.992 386.653 443.118Q386.573 442.244 386.537 441.367Q386.501 440.49 386.51 439.612Q386.518 438.735 386.571 437.858Q386.623 436.982 386.72 436.11Q386.816 435.238 386.957 434.371Q387.097 433.505 387.28 432.646Q387.464 431.788 387.691 430.94Q387.917 430.092 388.186 429.257Q388.455 428.421 388.766 427.6Q389.076 426.779 389.428 425.975Q389.779 425.171 390.17 424.385Q390.562 423.6 390.992 422.835Q391.423 422.07 391.891 421.328Q392.359 420.585 392.864 419.867Q393.37 419.15 393.91 418.458C400.172 410.362 408.842 406.396 418.825 405.186Z"/>
</svg>
