<?xml version="1.0" encoding="utf-8" ?>
<svg xmlns="http://www.w3.org/2000/svg" xmlns:xlink="http://www.w3.org/1999/xlink" width="128" height="128">
	<path transform="scale(0.25 0.25)" d="M342.609 80.266C343.528 77.3042 344.421 75.956 347.674 75.3272C385.035 77.4064 416.382 110.166 413.198 148.126C412 162.415 407.121 171.284 396.276 180.411C406.241 211.667 386.671 235.775 362.046 251.436C357.712 254.193 349.378 258.128 346.347 261.785L346.132 262.05C348.538 272.147 349.367 279.332 349.348 289.784C371.553 289.997 389.811 283.049 406.008 267.463C407.872 265.67 409.749 263.526 411.916 262.109C416.058 259.4 423.423 263.698 415.629 271.485C395.154 291.945 375.765 299.332 347.674 299.276C346.043 307.069 342.666 313.557 338.813 320.428C346.86 324.395 377.447 338.769 380.822 344.191C384.119 349.489 394.469 377.879 396.46 385.456C397.388 388.992 394.835 392.469 390.893 391.221C386.589 389.859 385.535 381.487 384.201 377.878C381.067 369.399 376.543 356.131 372.461 348.345C364.765 344.051 339.346 330.453 333.064 328.879C326.713 332.99 323.274 337.417 315.362 341.893C323.033 345.823 330.295 350.558 337.664 355.018C349.548 362.211 368.626 370.401 366.106 387.551C365.169 393.924 354.083 421.655 350.455 428.566C349.009 431.32 346.39 432.734 343.532 430.884C339.052 427.985 343.499 420.269 344.917 416.855L351.987 399.623C360.419 379.032 357.965 378.781 339.435 367.301C328.158 360.314 316.801 353.568 305.305 346.952C295.068 365.832 269.561 371.645 249.789 370.164C229.818 368.669 217.394 361.444 204.877 346.952C196.022 352.264 187.233 357.635 178.309 362.84C169.138 368.19 153.429 373.875 155.235 387.181C156.68 397.83 168.173 415.008 171.365 427.096C169.938 431.232 164.947 433.599 162.227 428.95C159.899 424.973 158.331 420.128 156.487 415.885L150.291 401.604C145.044 389.498 142.004 378.32 153.216 367.356C157.903 362.772 164.326 360.039 169.933 356.748L195.063 341.893C189.225 338.473 183.946 333.956 179.481 328.879C170.184 333.47 149.714 344.482 140.225 346.952C138.49 350.548 137.198 354.533 135.786 358.272L128.234 378.394C126.719 382.466 125.741 389.237 121.282 391.236C118.041 392.689 114.619 388.77 115.321 385.617C116.29 381.263 118.611 376.709 120.211 372.515L129.631 347.318C132.902 338.592 139.323 337.251 147.312 333.646L173.669 321.28C169.83 314.082 166.545 307.309 164.713 299.276C146.199 302.136 123.19 293.037 108.347 281.711C106.026 279.94 83.8348 262.089 97.4277 260.597C101.185 260.185 104.342 265.081 106.622 267.375C120.191 281.029 143.538 292.068 162.745 289.784C163.324 277.319 163.241 273.22 166.202 260.2C148.135 254.693 124.163 232.494 117.266 215.601C112.989 205.126 110.49 191.165 114.986 180.411C101.123 167.216 96.7123 156.192 98.8139 135.816C102.005 104.881 127.502 80.4775 157.787 76.2862C161.601 75.7584 173.851 74.6088 168.777 82.8177C163.485 91.3805 150.891 94.204 148.4 110.804C146.089 126.211 154.237 129.481 162.046 140.069C170.932 135.532 181.77 128.315 188.633 121.35C191.205 118.74 198.385 106.915 202.846 112.653C205.056 115.496 203.94 124.342 203.429 127.774C201.439 141.127 192.861 153.418 182.1 161.303C175.223 166.343 174.432 164.735 168.479 171.872C156.405 186.346 140.083 187.037 123.215 184.403C117.972 207.288 133.099 227.782 150.76 240.619C154.977 243.684 159.43 246.403 163.698 249.398C166.599 221.464 183.146 201.606 211.342 195.623C208.739 192.983 196.02 187.989 202.147 183.065C208.518 177.945 219.458 189.98 222.844 194.451L266.811 194.45C274.288 194.451 281.79 194.612 289.264 194.451C292.96 189.971 301.674 181.205 307.212 181.467C309.541 181.578 311.896 183.911 311.589 186.326C311.12 190.03 303.634 193.336 300.8 195.623C327.54 201.848 346.854 220.839 347.674 249.398C359.44 240.806 372.783 234.879 381.066 222.127C388.413 210.815 390.961 197.55 388.111 184.403C373.115 190.094 356.819 184.421 345.598 173.502C339.361 167.434 341.827 167.98 333.588 163.292C308.051 148.765 302.604 110.849 312.361 111.016C316.03 111.078 318.786 115.767 321.055 118.329C331.221 129.811 341.005 131.987 349.348 140.069C353.078 133.915 359.892 129.023 362.647 123.39C372.022 104.219 345.647 89.154 342.718 80.5944L342.609 80.266ZM150.069 87.2501C134.33 92.5613 121.29 103.068 113.908 118.097C105.71 134.786 103.412 163.996 123.303 173.757C135.795 179.888 153.133 176.096 161.795 165.136C163.693 162.735 165.074 160.319 167.869 158.857C180.122 152.741 189.365 143.501 193.1 130.193C182.139 139.844 168.319 145.276 158.551 153.753C153.554 142.793 150.508 142.294 144.639 134.13C135.831 121.877 137.576 104.708 146.145 92.8494C146.635 92.171 151.9 87.0899 150.069 87.2501ZM360.554 87.2501C368.182 96.0547 374.294 106.221 373.456 118.317C372.471 132.529 357.761 137.925 353.656 153.753C342.796 144.374 329.9 139.58 318.176 128.879C323.47 144.128 330.306 151.072 344.341 158.857L344.654 159.051C347.741 161.01 349.684 164.252 352.214 166.833C377.819 192.953 411.379 168.953 402.905 130.744C398.919 112.77 379.73 89.55 360.554 87.2501ZM236.388 203.62C234.093 203.626 231.797 203.644 229.502 203.62C237.236 216.543 247.994 228.724 256.173 241.927C258.719 237.498 261.834 233.345 264.74 229.145L275.461 214.158C277.925 210.72 280.625 207.342 282.644 203.62L236.388 203.62ZM217.755 203.62C201.712 207.197 190.353 211.407 181.131 225.885C164.683 251.708 173.702 271.242 204.877 262.05C222.248 257.696 231.586 252.06 251.226 250.542C247.139 244.901 218.589 204.028 217.755 203.62ZM293.974 203.62C291.474 208.641 287.875 212.895 284.604 217.415L269.555 238.648C266.794 242.573 263.75 246.373 261.364 250.542C278.228 251.376 292.393 257.62 308.218 262.05C316.979 264.339 334.624 267.632 337.791 255.421C340.039 246.756 336.55 234.192 331.968 226.752C321.856 210.329 309.931 208.434 293.974 203.62ZM249.526 260.2C242.445 261.097 235.48 262.281 228.635 264.353C207.701 270.688 195.316 278.565 173.669 269.777C167.696 293.169 178.899 323.707 201.636 334.215C212.735 339.344 208.092 335.567 215.274 344.966C225.277 358.058 246.513 362.65 262.19 360.943C274.314 358.976 288.111 355.161 295.669 344.571C304.282 332.503 301.083 339.563 313.232 332.402C337.923 317.847 341.101 295.068 338.813 269.777C314.078 279.445 302.333 268.509 278.95 262.755C269.061 260.322 259.634 260.06 249.526 260.2Z"/>
	<path transform="scale(0.25 0.25)" d="M304.66 242.224Q304.263 242.266 303.865 242.281Q303.467 242.296 303.068 242.285Q302.669 242.274 302.272 242.236Q301.875 242.199 301.482 242.135Q301.088 242.072 300.7 241.982Q300.311 241.892 299.929 241.777Q299.547 241.662 299.174 241.522Q298.801 241.382 298.438 241.217Q298.074 241.053 297.723 240.865Q297.371 240.676 297.033 240.465Q296.695 240.254 296.371 240.021Q296.047 239.788 295.74 239.535Q295.432 239.281 295.142 239.007Q294.852 238.733 294.581 238.441Q294.31 238.149 294.059 237.839Q293.807 237.53 293.577 237.204Q293.347 236.878 293.139 236.538Q292.93 236.198 292.745 235.845Q292.56 235.492 292.398 235.128Q292.237 234.763 292.1 234.389Q291.963 234.014 291.851 233.632Q291.739 233.249 291.653 232.86Q291.566 232.47 291.506 232.076Q291.446 231.682 291.411 231.285Q291.377 230.888 291.369 230.489Q291.362 230.09 291.38 229.692Q291.399 229.294 291.444 228.898Q291.489 228.502 291.56 228.109Q291.631 227.717 291.727 227.33Q291.824 226.943 291.946 226.564Q292.069 226.184 292.216 225.814Q292.363 225.443 292.534 225.083Q292.705 224.723 292.9 224.375Q293.095 224.027 293.312 223.693Q293.529 223.358 293.768 223.039Q294.007 222.72 294.267 222.417Q294.526 222.115 294.805 221.83Q295.084 221.545 295.381 221.279Q295.679 221.013 295.993 220.768Q296.307 220.522 296.637 220.298Q296.966 220.074 297.31 219.872Q297.654 219.67 298.011 219.492Q298.367 219.313 298.735 219.158Q299.102 219.004 299.479 218.874Q299.856 218.744 300.241 218.639Q300.625 218.534 301.016 218.455Q301.407 218.376 301.802 218.323Q302.197 218.27 302.595 218.243Q302.886 218.223 303.178 218.218Q303.47 218.212 303.762 218.221Q304.054 218.23 304.345 218.253Q304.636 218.276 304.926 218.312Q305.215 218.349 305.503 218.4Q305.79 218.451 306.075 218.516Q306.36 218.581 306.641 218.659Q306.922 218.738 307.199 218.83Q307.476 218.922 307.749 219.027Q308.021 219.133 308.288 219.251Q308.555 219.37 308.815 219.501Q309.076 219.632 309.33 219.776Q309.584 219.92 309.831 220.076Q310.078 220.232 310.317 220.399Q310.556 220.567 310.787 220.746Q311.017 220.925 311.239 221.115Q311.461 221.305 311.673 221.506Q311.885 221.706 312.087 221.917Q312.289 222.128 312.481 222.348Q312.673 222.568 312.854 222.797Q313.034 223.027 313.204 223.264Q313.373 223.502 313.531 223.748Q313.689 223.993 313.835 224.246Q313.98 224.499 314.114 224.759Q314.247 225.019 314.367 225.285Q314.488 225.551 314.595 225.822Q314.703 226.094 314.797 226.37Q314.891 226.647 314.972 226.927Q315.053 227.208 315.12 227.492Q315.186 227.776 315.24 228.063Q315.293 228.35 315.332 228.64Q315.371 228.929 315.396 229.22Q315.421 229.511 315.432 229.803Q315.443 230.094 315.44 230.386Q315.436 230.678 315.419 230.97Q315.402 231.261 315.37 231.552Q315.339 231.842 315.293 232.13Q315.247 232.419 315.188 232.704Q315.129 232.99 315.055 233.273Q314.982 233.556 314.895 233.834Q314.808 234.113 314.708 234.387Q314.608 234.662 314.494 234.931Q314.381 235.2 314.254 235.463Q314.128 235.726 313.989 235.983Q313.85 236.24 313.699 236.489Q313.547 236.739 313.384 236.981Q313.221 237.223 313.046 237.457Q312.872 237.691 312.686 237.916Q312.5 238.141 312.303 238.357Q312.107 238.573 311.9 238.779Q311.693 238.985 311.476 239.181Q311.26 239.377 311.034 239.562Q310.808 239.747 310.574 239.921Q310.339 240.095 310.096 240.257Q309.854 240.42 309.604 240.57Q309.353 240.72 309.096 240.859Q308.839 240.997 308.575 241.122Q308.311 241.248 308.042 241.36Q307.773 241.473 307.498 241.572Q307.224 241.671 306.944 241.757Q306.665 241.843 306.382 241.915Q306.1 241.988 305.814 242.046Q305.527 242.104 305.239 242.149Q304.95 242.194 304.66 242.224ZM301.914 227.739C298.666 230.654 300.384 234.008 304.405 233.869C307.522 230.621 306.369 227.304 301.914 227.739Z"/>
	<path transform="scale(0.25 0.25)" d="M209.899 242.533Q209.608 242.601 209.313 242.655Q209.019 242.709 208.722 242.748Q208.425 242.787 208.127 242.811Q207.829 242.836 207.529 242.846Q207.23 242.855 206.931 242.85Q206.632 242.845 206.333 242.826Q206.034 242.806 205.737 242.772Q205.44 242.737 205.145 242.688Q204.849 242.639 204.557 242.576Q204.264 242.512 203.975 242.434Q203.686 242.356 203.402 242.264Q203.117 242.173 202.837 242.067Q202.557 241.961 202.282 241.841Q202.008 241.722 201.74 241.589Q201.472 241.456 201.21 241.31Q200.949 241.164 200.695 241.005Q200.441 240.847 200.196 240.676Q199.95 240.505 199.713 240.322Q199.476 240.139 199.249 239.945Q199.021 239.75 198.803 239.545Q198.585 239.34 198.378 239.124Q198.17 238.908 197.974 238.683Q197.777 238.457 197.592 238.222Q197.407 237.987 197.233 237.743Q197.06 237.499 196.899 237.247Q196.738 236.994 196.589 236.735Q196.441 236.475 196.305 236.208Q196.169 235.941 196.047 235.668Q195.925 235.395 195.816 235.116Q195.707 234.837 195.613 234.553Q195.518 234.269 195.437 233.981Q195.356 233.693 195.29 233.401Q195.224 233.109 195.172 232.814Q195.12 232.52 195.082 232.223Q195.045 231.926 195.022 231.627Q195 231.329 194.992 231.03Q194.984 230.731 194.99 230.431Q194.997 230.132 195.019 229.834Q195.04 229.535 195.076 229.238Q195.112 228.941 195.163 228.646Q195.214 228.351 195.279 228.059Q195.344 227.767 195.424 227.478Q195.504 227.19 195.597 226.906Q195.691 226.621 195.798 226.342Q195.906 226.063 196.027 225.789Q196.148 225.515 196.283 225.248Q196.417 224.981 196.565 224.72Q196.712 224.46 196.872 224.207Q197.032 223.954 197.205 223.71Q197.377 223.465 197.561 223.229Q197.746 222.993 197.941 222.767Q198.137 222.54 198.344 222.324Q198.55 222.107 198.767 221.901Q198.984 221.695 199.211 221.499Q199.438 221.304 199.674 221.12Q199.91 220.937 200.155 220.765Q200.4 220.593 200.653 220.433Q200.906 220.273 201.167 220.126Q201.428 219.979 201.695 219.845Q201.963 219.711 202.237 219.591Q202.511 219.47 202.79 219.363Q203.07 219.256 203.354 219.163Q203.638 219.07 203.927 218.991Q204.216 218.912 204.508 218.847Q204.798 218.783 205.091 218.733Q205.384 218.683 205.679 218.647Q205.974 218.612 206.27 218.591Q206.566 218.569 206.863 218.563Q207.16 218.556 207.457 218.564Q207.754 218.572 208.05 218.594Q208.346 218.617 208.641 218.654Q208.936 218.691 209.229 218.742Q209.521 218.793 209.811 218.859Q210.101 218.924 210.387 219.004Q210.673 219.083 210.955 219.177Q211.237 219.27 211.514 219.377Q211.791 219.484 212.063 219.605Q212.334 219.726 212.599 219.859Q212.865 219.993 213.123 220.139Q213.382 220.286 213.633 220.445Q213.883 220.604 214.126 220.775Q214.369 220.946 214.604 221.129Q214.838 221.311 215.063 221.505Q215.288 221.699 215.503 221.904Q215.718 222.108 215.923 222.323Q216.128 222.538 216.323 222.763Q216.517 222.988 216.7 223.222Q216.883 223.456 217.054 223.698Q217.226 223.941 217.385 224.192Q217.544 224.442 217.691 224.701Q217.838 224.959 217.972 225.224Q218.106 225.489 218.227 225.76Q218.348 226.032 218.456 226.309Q218.563 226.586 218.657 226.867Q218.751 227.149 218.831 227.435Q218.911 227.721 218.977 228.011Q219.043 228.301 219.095 228.593Q219.146 228.886 219.184 229.18Q219.221 229.475 219.244 229.771Q219.267 230.067 219.275 230.364Q219.283 230.661 219.277 230.958Q219.271 231.255 219.25 231.551Q219.23 231.848 219.194 232.143Q219.159 232.438 219.11 232.731Q219.06 233.023 218.996 233.314Q218.933 233.604 218.855 233.89Q218.777 234.177 218.685 234.459Q218.593 234.742 218.488 235.02Q218.382 235.297 218.263 235.569Q218.144 235.842 218.012 236.108Q217.88 236.374 217.735 236.633Q217.59 236.892 217.433 237.144Q217.275 237.396 217.106 237.64Q216.936 237.884 216.755 238.119Q216.574 238.354 216.381 238.581Q216.189 238.807 215.985 239.023Q215.782 239.24 215.568 239.446Q215.354 239.652 215.131 239.848Q214.907 240.043 214.674 240.228Q214.441 240.412 214.2 240.585Q213.958 240.758 213.708 240.919Q213.459 241.079 213.201 241.228Q212.944 241.376 212.68 241.512Q212.416 241.647 212.145 241.77Q211.874 241.893 211.598 242.002Q211.322 242.111 211.041 242.206Q210.759 242.302 210.474 242.384Q210.188 242.465 209.899 242.533ZM206.038 227.739C202.255 229.848 203.284 234.281 207.941 233.869C212.059 231.926 210.706 227.459 206.038 227.739Z"/>
</svg>
